<svg xmlns="http://www.w3.org/2000/svg" width="21" height="22" viewBox="0 0 21 22" fill="none">
  <path d="M2.625 2.75H4.375L4.725 4.58333M6.125 11.9167H14.875L18.375 4.58333H4.725M6.125 11.9167L4.725 4.58333M6.125 11.9167L4.11872 14.0185C3.5675 14.596 3.9579 15.5833 4.73744 15.5833H14.875M14.875 15.5833C13.9085 15.5833 13.125 16.4041 13.125 17.4167C13.125 18.4292 13.9085 19.25 14.875 19.25C15.8415 19.25 16.625 18.4292 16.625 17.4167C16.625 16.4041 15.8415 15.5833 14.875 15.5833ZM7.875 17.4167C7.875 18.4292 7.0915 19.25 6.125 19.25C5.1585 19.25 4.375 18.4292 4.375 17.4167C4.375 16.4041 5.1585 15.5833 6.125 15.5833C7.0915 15.5833 7.875 16.4041 7.875 17.4167Z" stroke="#133C94" stroke-width="2" stroke-linecap="round" stroke-linejoin="round"/>
</svg>