<svg xmlns="http://www.w3.org/2000/svg" width="18" height="21" viewBox="0 0 18 21" fill="none">
  <g clip-path="url(#clip0_602_109)">
    <path d="M9.0041 5.78354C6.44874 5.78354 4.38758 7.88765 4.38758 10.4962C4.38758 13.1048 6.44874 15.2089 9.0041 15.2089C11.5595 15.2089 13.6206 13.1048 13.6206 10.4962C13.6206 7.88765 11.5595 5.78354 9.0041 5.78354ZM9.0041 13.5601C7.35276 13.5601 6.00276 12.1861 6.00276 10.4962C6.00276 8.8064 7.34874 7.43237 9.0041 7.43237C10.6595 7.43237 12.0054 8.8064 12.0054 10.4962C12.0054 12.1861 10.6554 13.5601 9.0041 13.5601ZM14.8862 5.59077C14.8862 6.2019 14.4041 6.68999 13.8095 6.68999C13.2108 6.68999 12.7327 6.1978 12.7327 5.59077C12.7327 4.98374 13.2148 4.49155 13.8095 4.49155C14.4041 4.49155 14.8862 4.98374 14.8862 5.59077ZM17.9438 6.7064C17.8755 5.23394 17.5461 3.92964 16.4894 2.85503C15.4367 1.78042 14.159 1.44409 12.7166 1.37026C11.23 1.28413 6.77419 1.28413 5.28758 1.37026C3.84919 1.43999 2.57151 1.77632 1.51482 2.85093C0.45812 3.92554 0.132673 5.22983 0.0603516 6.70229C-0.0240234 8.21987 -0.0240234 12.7685 0.0603516 14.2861C0.128655 15.7585 0.45812 17.0628 1.51482 18.1374C2.57151 19.2121 3.84517 19.5484 5.28758 19.6222C6.77419 19.7083 11.23 19.7083 12.7166 19.6222C14.159 19.5525 15.4367 19.2162 16.4894 18.1374C17.542 17.0628 17.8715 15.7585 17.9438 14.2861C18.0282 12.7685 18.0282 8.22397 17.9438 6.7064ZM16.0233 15.9144C15.7099 16.7183 15.1032 17.3376 14.3117 17.6617C13.1264 18.1416 10.3139 18.0308 9.0041 18.0308C7.69428 18.0308 4.87776 18.1374 3.69651 17.6617C2.90901 17.3417 2.30232 16.7224 1.98491 15.9144C1.51482 14.7044 1.6233 11.8333 1.6233 10.4962C1.6233 9.15913 1.51883 6.28394 1.98491 5.07808C2.2983 4.27417 2.90499 3.65483 3.69651 3.33081C4.88178 2.85093 7.69428 2.96167 9.0041 2.96167C10.3139 2.96167 13.1304 2.85503 14.3117 3.33081C15.0992 3.65073 15.7059 4.27007 16.0233 5.07808C16.4934 6.28804 16.3849 9.15913 16.3849 10.4962C16.3849 11.8333 16.4934 14.7085 16.0233 15.9144Z" fill="#FCFCF9"/>
  </g>
  <defs>
    <clipPath id="clip0_602_109">
      <rect width="18" height="21" fill="white"/>
    </clipPath>
  </defs>
</svg>