<svg xmlns="http://www.w3.org/2000/svg" width="20" height="21" viewBox="0 0 20 21" fill="none">
  <g clip-path="url(#clip0_602_105)">
    <path d="M20 10.5C20 16.1191 15.5242 20.6719 10 20.6719C8.96774 20.6719 7.97581 20.5119 7.04032 20.2166C7.44758 19.5398 8.05645 18.4324 8.28226 17.5506C8.40322 17.0748 8.90323 15.1307 8.90323 15.1307C9.22984 15.7623 10.1815 16.2996 11.1935 16.2996C14.2097 16.2996 16.3831 13.4777 16.3831 9.9709C16.3831 6.61172 13.6855 4.09746 10.2177 4.09746C5.90323 4.09746 3.60887 7.04238 3.60887 10.2539C3.60887 11.7469 4.39113 13.6049 5.6371 14.1955C5.82661 14.2857 5.92742 14.2447 5.97177 14.0602C6.00403 13.9207 6.17339 13.2275 6.25 12.9076C6.27419 12.8051 6.2621 12.7148 6.18145 12.6164C5.77419 12.1037 5.44355 11.1686 5.44355 10.2949C5.44355 8.05137 7.1129 5.88164 9.95968 5.88164C12.4153 5.88164 14.1371 7.58379 14.1371 10.0201C14.1371 12.7723 12.7702 14.6795 10.9919 14.6795C10.0121 14.6795 9.27419 13.8551 9.5121 12.842C9.79435 11.632 10.3387 10.3277 10.3387 9.4541C10.3387 8.6748 9.92742 8.02266 9.07258 8.02266C8.06855 8.02266 7.2621 9.07676 7.2621 10.4918C7.2621 11.3941 7.56048 12.0012 7.56048 12.0012C7.56048 12.0012 6.57258 16.2586 6.39113 17.0543C6.18952 17.932 6.27016 19.1707 6.35484 19.9746C2.6371 18.4939 0 14.8107 0 10.5C0 4.88086 4.47581 0.328125 10 0.328125C15.5242 0.328125 20 4.88086 20 10.5Z" fill="#FCFCF9"/>
  </g>
  <defs>
    <clipPath id="clip0_602_105">
      <rect width="20" height="21" fill="white"/>
    </clipPath>
  </defs>
</svg>