<svg xmlns="http://www.w3.org/2000/svg" width="48" height="30" viewBox="0 0 48 30" fill="none">
  <path d="M43.1089 0H4.24034C4.07846 0 3.91629 0 3.75469 0.000918581C3.6181 0.001865 3.48182 0.00334029 3.34554 0.00695895C3.04832 0.0147808 2.74856 0.0318441 2.45506 0.0831733C2.15687 0.135393 1.87939 0.220571 1.60869 0.354683C1.34256 0.486375 1.09893 0.658622 0.887787 0.864162C0.676557 1.0697 0.499542 1.30639 0.364235 1.56562C0.226382 1.82903 0.13879 2.09912 0.0854969 2.38951C0.032464 2.67519 0.0148111 2.96682 0.00680139 3.25573C0.00313981 3.38834 0.00156933 3.52095 0.000679682 3.65353C-0.000264321 3.81111 5.03468e-05 3.96858 5.03468e-05 4.12643V25.3701C5.03468e-05 25.5279 -0.000264321 25.6851 0.000679682 25.843C0.00156933 25.9756 0.00313981 26.1082 0.00680139 26.2408C0.0148111 26.5295 0.032464 26.8211 0.0854969 27.1067C0.13879 27.3972 0.226382 27.6672 0.364235 27.9306C0.499542 28.1899 0.676557 28.4268 0.887787 28.6321C1.09893 28.838 1.34256 29.0102 1.60869 29.1415C1.87939 29.276 2.15687 29.3612 2.45506 29.4134C2.74856 29.4644 3.04832 29.4818 3.34554 29.4896C3.48182 29.4926 3.6181 29.4944 3.75469 29.495C3.91629 29.4962 4.07846 29.4962 4.24034 29.4962H43.1089C43.2705 29.4962 43.4327 29.4962 43.5942 29.495C43.7305 29.4944 43.8668 29.4926 44.0037 29.4896C44.3003 29.4818 44.6 29.4644 44.8942 29.4134C45.192 29.3612 45.4695 29.276 45.7402 29.1415C46.0067 29.0102 46.2496 28.838 46.4612 28.6321C46.672 28.4268 46.8491 28.1899 46.9847 27.9306C47.1229 27.6672 47.2104 27.3972 47.2634 27.1067C47.3165 26.8211 47.3337 26.5295 47.3417 26.2408C47.3455 26.1082 47.3473 25.9756 47.3479 25.843C47.3492 25.6851 47.3492 25.5279 47.3492 25.3701V4.12643C47.3492 3.96858 47.3492 3.81111 47.3479 3.65353C47.3473 3.52095 47.3455 3.38834 47.3417 3.25573C47.3337 2.96682 47.3165 2.67519 47.2634 2.38951C47.2104 2.09912 47.1229 1.82903 46.9847 1.56562C46.8491 1.30639 46.672 1.0697 46.4612 0.864162C46.2496 0.658622 46.0067 0.486375 45.7402 0.354683C45.4695 0.220571 45.192 0.135393 44.8942 0.0831733C44.6 0.0318441 44.3003 0.0147808 44.0037 0.00695895C43.8668 0.00334029 43.7305 0.001865 43.5942 0.000918581C43.4327 0 43.2705 0 43.1089 0Z" fill="black"/>
  <path d="M43.1092 0.983398L43.5874 0.984289C43.7169 0.98518 43.8465 0.986544 43.9767 0.989996C44.2033 0.995952 44.4683 1.00789 44.7153 1.05098C44.9301 1.08862 45.1102 1.14585 45.283 1.23147C45.4537 1.31584 45.61 1.4264 45.7465 1.55904C45.8835 1.69257 45.9973 1.84494 46.0851 2.01282C46.1726 2.1797 46.2311 2.35412 46.2695 2.56461C46.3137 2.80238 46.3259 3.06098 46.3321 3.2828C46.3356 3.40801 46.3373 3.53321 46.338 3.6614C46.3392 3.81641 46.3392 3.97135 46.3392 4.12667V25.3703C46.3392 25.5257 46.3392 25.6803 46.3379 25.8386C46.3373 25.9638 46.3356 26.089 46.3321 26.2144C46.3259 26.4359 46.3137 26.6944 46.269 26.935C46.2311 27.1426 46.1727 27.317 46.0847 27.4847C45.9971 27.6522 45.8835 27.8044 45.7471 27.9371C45.6098 28.0707 45.454 28.1809 45.2813 28.2661C45.1098 28.3513 44.93 28.4085 44.7173 28.4457C44.4653 28.4894 44.1892 28.5014 43.9812 28.5069C43.8503 28.5098 43.7201 28.5115 43.5867 28.5121C43.4278 28.5133 43.2682 28.5133 43.1092 28.5133H4.24069C4.23857 28.5133 4.23651 28.5133 4.23437 28.5133C4.07721 28.5133 3.91973 28.5133 3.75971 28.5121C3.62923 28.5115 3.49905 28.5098 3.37318 28.507C3.16046 28.5014 2.88416 28.4894 2.63417 28.446C2.41971 28.4085 2.23992 28.3513 2.06611 28.265C1.89508 28.1806 1.73937 28.0705 1.60203 27.9366C1.46575 27.8042 1.3525 27.6525 1.26494 27.4848C1.17729 27.3172 1.11864 27.1422 1.08009 26.9322C1.03552 26.6921 1.02327 26.4346 1.01715 26.2146C1.01366 26.0887 1.0122 25.9628 1.01137 25.8376L1.01074 25.4679L1.01077 25.3703V4.12667L1.01074 4.02908L1.01134 3.66023C1.0122 3.53427 1.01366 3.40834 1.01715 3.28249C1.02327 3.06229 1.03552 2.80475 1.08046 2.56263C1.11867 2.35445 1.17729 2.17947 1.26539 2.0111C1.35227 1.84467 1.46572 1.69274 1.60272 1.55946C1.73917 1.42663 1.89539 1.3162 2.06751 1.23103C2.23946 1.14582 2.41959 1.08862 2.63405 1.05107C2.88115 1.00787 3.14636 0.995952 3.37349 0.989968C3.50297 0.986544 3.63244 0.98518 3.76094 0.984317L4.24069 0.983398H43.1092Z" fill="white"/>
  <path d="M12.9259 9.92089C13.3313 9.42746 13.6064 8.76492 13.5339 8.08789C12.9404 8.11661 12.2162 8.46888 11.7969 8.9627C11.4204 9.38558 11.0872 10.0759 11.1741 10.7245C11.8403 10.7807 12.5059 10.4005 12.9259 9.92089Z" fill="black"/>
  <path d="M13.5265 10.8514C12.559 10.7953 11.7364 11.3857 11.2744 11.3857C10.8121 11.3857 10.1046 10.8797 9.33934 10.8933C8.34334 10.9075 7.41917 11.4555 6.91374 12.3271C5.87416 14.0706 6.6394 16.6568 7.65033 18.0768C8.14127 18.7794 8.73292 19.5529 9.51252 19.5251C10.2491 19.497 10.5378 19.061 11.4332 19.061C12.3279 19.061 12.588 19.5251 13.3677 19.511C14.1763 19.497 14.6818 18.8082 15.1727 18.105C15.7359 17.3041 15.9665 16.5309 15.981 16.4884C15.9665 16.4744 14.4218 15.8977 14.4074 14.1687C14.3929 12.721 15.6202 12.0323 15.678 11.9896C14.9849 10.9921 13.9019 10.8797 13.5265 10.8514Z" fill="black"/>
  <path d="M21.9508 8.8916C24.0536 8.8916 25.5179 10.3021 25.5179 12.3556C25.5179 14.4164 24.0235 15.8342 21.8981 15.8342H19.5698V19.4371H17.8877V8.8916L21.9508 8.8916ZM19.5698 14.4603H21.5C22.9645 14.4603 23.7981 13.693 23.7981 12.3629C23.7981 11.0329 22.9645 10.2729 21.5075 10.2729H19.5698V14.4603Z" fill="black"/>
  <path d="M25.957 17.2522C25.957 15.9074 27.016 15.0817 28.8937 14.9793L31.0565 14.8551V14.2632C31.0565 13.4082 30.4631 12.8966 29.472 12.8966C28.533 12.8966 27.9472 13.335 27.8046 14.0221H26.2725C26.3626 12.6335 27.5792 11.6104 29.532 11.6104C31.447 11.6104 32.6711 12.5969 32.6711 14.1389V19.4372H31.1165V18.173H31.0791C30.621 19.028 29.6221 19.5688 28.5857 19.5688C27.0386 19.5688 25.957 18.6333 25.957 17.2522ZM31.0565 16.558V15.9514L29.1113 16.0683C28.1424 16.1341 27.5943 16.5506 27.5943 17.2084C27.5943 17.8806 28.165 18.3191 29.0362 18.3191C30.1702 18.3191 31.0565 17.5591 31.0565 16.558Z" fill="black"/>
  <path d="M34.1395 22.2653V20.9864C34.2594 21.0156 34.5298 21.0156 34.6651 21.0156C35.416 21.0156 35.8216 20.7087 36.0694 19.9194C36.0694 19.9048 36.2122 19.4517 36.2122 19.4444L33.3584 11.749H35.1156L37.1135 18.0048H37.1434L39.1413 11.749H40.8536L37.8943 19.8389C37.2187 21.7026 36.4376 22.3018 34.8004 22.3018C34.6651 22.3018 34.2594 22.2872 34.1395 22.2653Z" fill="black"/>
</svg>