<svg xmlns="http://www.w3.org/2000/svg" width="40" height="20" viewBox="0 0 40 20" fill="none">
  <g clip-path="url(#clip0_602_70)">
    <path d="M18.7765 10.0723V14.7101H17.314V3.24023H21.1165C22.0427 3.24023 22.9202 3.58932 23.6027 4.23761C24.2852 4.83604 24.6265 5.73367 24.6265 6.68118C24.6265 7.62869 24.2852 8.47646 23.6027 9.12475C22.9202 9.77304 22.0915 10.1221 21.1165 10.1221L18.7765 10.0723ZM18.7765 4.63656V8.62606H21.214C21.7502 8.62606 22.2865 8.42659 22.6277 8.02764C23.4077 7.2796 23.4077 6.03289 22.6765 5.28485L22.6277 5.23499C22.2377 4.83604 21.7502 4.58669 21.214 4.63656H18.7765Z" fill="#5F6368"/>
    <path d="M27.9902 6.63086C29.0627 6.63086 29.8915 6.93007 30.5252 7.5285C31.159 8.12692 31.4515 8.92482 31.4515 9.9222V14.7096H30.0865V13.6125H30.0377C29.4527 14.5101 28.624 14.9589 27.649 14.9589C26.8202 14.9589 26.089 14.7096 25.504 14.2109C24.9677 13.7122 24.6265 13.0141 24.6265 12.266C24.6265 11.4681 24.919 10.8198 25.504 10.3211C26.089 9.82246 26.9177 9.62299 27.8927 9.62299C28.7702 9.62299 29.4527 9.77259 29.989 10.1217V9.77259C29.989 9.2739 29.794 8.77522 29.404 8.476C29.014 8.12692 28.5265 7.92745 27.9902 7.92745C27.1615 7.92745 26.5277 8.27653 26.089 8.97469L24.8215 8.17679C25.6015 7.12955 26.6252 6.63086 27.9902 6.63086ZM26.1377 12.3159C26.1377 12.7148 26.3327 13.0639 26.6252 13.2634C26.9665 13.5127 27.3565 13.6624 27.7465 13.6624C28.3315 13.6624 28.9165 13.413 29.3552 12.9642C29.8427 12.5154 30.0865 11.9668 30.0865 11.3684C29.6477 11.0193 29.014 10.8198 28.1852 10.8198C27.6002 10.8198 27.1127 10.9694 26.7227 11.2687C26.3327 11.518 26.1377 11.8671 26.1377 12.3159Z" fill="#5F6368"/>
    <path d="M39.3491 6.88086L34.5228 18.2011H33.0603L34.8641 14.2614L31.6953 6.93073H33.2553L35.5466 12.5659H35.5953L37.8378 6.93073H39.3491V6.88086Z" fill="#5F6368"/>
    <path d="M12.9754 9.07497C12.9754 8.62615 12.9267 8.17733 12.8779 7.72852H6.78418V10.2718H10.2454C10.0992 11.0697 9.66043 11.8178 8.97793 12.2666V13.9122H11.0742C12.2929 12.7653 12.9754 11.0697 12.9754 9.07497Z" fill="#4285F4"/>
    <path d="M6.78424 15.5078C8.53924 15.5078 10.0017 14.9094 11.0742 13.912L8.97799 12.2664C8.39299 12.6653 7.66174 12.9147 6.78424 12.9147C5.12674 12.9147 3.66424 11.7677 3.17674 10.1719H1.03174V11.8674C2.15299 14.1115 4.34674 15.5078 6.78424 15.5078Z" fill="#34A853"/>
    <path d="M3.1766 10.1715C2.8841 9.37356 2.8841 8.47592 3.1766 7.62816V5.93262H1.0316C0.105352 7.77776 0.105352 9.97199 1.0316 11.867L3.1766 10.1715Z" fill="#FBBC04"/>
    <path d="M6.78432 4.9357C7.71057 4.9357 8.58807 5.28478 9.27057 5.93308L11.1231 4.03806C9.95307 2.94095 8.39307 2.29266 6.83307 2.34253C4.39557 2.34253 2.15307 3.73885 1.08057 5.98295L3.22557 7.67848C3.66432 6.08268 5.12682 4.9357 6.78432 4.9357Z" fill="#EA4335"/>
  </g>
  <defs>
    <clipPath id="clip0_602_70">
      <rect width="39" height="19" fill="white" transform="translate(0.349121 0.248047)"/>
    </clipPath>
  </defs>
</svg>