<svg xmlns="http://www.w3.org/2000/svg" width="65" height="19" viewBox="0 0 65 19" fill="none">
  <g clip-path="url(#clip0_602_50)">
    <path d="M20.7852 4.34766C20.6514 4.34766 20.5378 4.4491 20.5169 4.58723L18.9684 14.8447C18.9627 14.8822 18.965 14.9205 18.9748 14.957C18.9847 14.9935 19.0021 15.0273 19.0257 15.0561C19.0493 15.0849 19.0786 15.1081 19.1116 15.1239C19.1445 15.1398 19.1804 15.148 19.2167 15.148H21.0531C21.1867 15.148 21.3005 15.0464 21.3214 14.9085L21.7763 11.8963C21.797 11.7583 21.9108 11.6567 22.0446 11.6567H23.7142C25.665 11.6567 27.3209 10.17 27.6234 8.15535C27.9284 6.1237 26.4089 4.35207 24.2552 4.34766H20.7852ZM22.5703 6.63752H23.9061C25.0059 6.63752 25.364 7.31534 25.2508 8.06493C25.1375 8.81612 24.5813 9.36944 23.5175 9.36944H22.1578L22.5703 6.63752ZM31.3583 7.33479C30.8946 7.33659 30.3611 7.43583 29.7621 7.69645C28.3881 8.29468 27.7282 9.53103 27.448 10.4324C27.448 10.4324 26.5561 13.1823 28.5712 14.6932C28.5712 14.6932 30.44 16.1476 32.5437 14.6035L32.5074 14.8447C32.5018 14.8822 32.504 14.9204 32.5139 14.9569C32.5237 14.9933 32.541 15.0271 32.5646 15.056C32.5882 15.0848 32.6174 15.1079 32.6503 15.1238C32.6833 15.1397 32.7191 15.148 32.7554 15.148H34.4987C34.6325 15.148 34.7461 15.0464 34.767 14.9085L35.8274 7.8841C35.8331 7.84663 35.8309 7.80833 35.8211 7.77181C35.8113 7.7353 35.794 7.70145 35.7704 7.67259C35.7468 7.64372 35.7176 7.62053 35.6846 7.60462C35.6516 7.5887 35.6158 7.58043 35.5794 7.58037H33.8361C33.7024 7.58037 33.5886 7.68202 33.5678 7.81995L33.5108 8.19805C33.5108 8.19805 32.7496 7.32937 31.3583 7.33479ZM31.4153 9.55348C31.6155 9.55348 31.7986 9.58235 31.9629 9.63749C32.7151 9.88969 33.1416 10.6445 33.0181 11.4626C32.8659 12.47 32.075 13.2118 31.0607 13.2118C30.8607 13.2118 30.6776 13.1832 30.5131 13.128C29.7611 12.8758 29.332 12.121 29.4554 11.3029C29.6076 10.2955 30.401 9.55348 31.4153 9.55348Z" fill="#003087"/>
    <path d="M45.8892 4.34766C45.7554 4.34766 45.6418 4.4491 45.6209 4.58723L44.0724 14.8447C44.0667 14.8822 44.069 14.9205 44.0789 14.957C44.0887 14.9935 44.1061 15.0273 44.1297 15.0561C44.1533 15.0849 44.1826 15.1081 44.2156 15.1239C44.2485 15.1398 44.2844 15.148 44.3207 15.148H46.1571C46.2907 15.148 46.4045 15.0464 46.4254 14.9085L46.8803 11.8963C46.901 11.7583 47.0148 11.6567 47.1486 11.6567H48.8182C50.769 11.6567 52.4247 10.17 52.727 8.15535C53.0322 6.1237 51.5129 4.35207 49.3593 4.34766H45.8892ZM47.6743 6.63752H49.0101C50.1099 6.63752 50.468 7.31534 50.3548 8.06493C50.2416 8.81612 49.6855 9.36944 48.6215 9.36944H47.2619L47.6743 6.63752ZM56.4622 7.33479C55.9985 7.33659 55.4649 7.43583 54.8659 7.69645C53.4919 8.29468 52.832 9.53103 52.5518 10.4324C52.5518 10.4324 51.6603 13.1823 53.6753 14.6932C53.6753 14.6932 55.5438 16.1476 57.6477 14.6035L57.6114 14.8447C57.6058 14.8822 57.608 14.9205 57.6179 14.957C57.6278 14.9935 57.6451 15.0273 57.6687 15.0561C57.6923 15.0849 57.7216 15.1081 57.7546 15.1239C57.7876 15.1398 57.8235 15.148 57.8598 15.148H59.6029C59.7367 15.148 59.8503 15.0464 59.8712 14.9085L60.932 7.8841C60.9377 7.8466 60.9355 7.80826 60.9257 7.77172C60.9158 7.73518 60.8985 7.7013 60.8748 7.67243C60.8512 7.64356 60.8219 7.62038 60.7889 7.60449C60.7559 7.5886 60.72 7.58037 60.6836 7.58037H58.9403C58.8066 7.58037 58.6928 7.68202 58.672 7.81995L58.615 8.19805C58.615 8.19805 57.8535 7.32937 56.4622 7.33479ZM56.5192 9.55348C56.7193 9.55348 56.9024 9.58235 57.0667 9.63749C57.8189 9.88969 58.2454 10.6445 58.122 11.4626C57.9698 12.47 57.1788 13.2118 56.1645 13.2118C55.9645 13.2118 55.7814 13.1832 55.6169 13.128C54.8649 12.8758 54.4358 12.121 54.5592 11.3029C54.7114 10.2955 55.5048 9.55348 56.5192 9.55348Z" fill="#0070E0"/>
    <path d="M36.6543 7.58028C36.5161 7.58028 36.4179 7.72122 36.4601 7.85854L38.3713 14.0535L36.6432 16.9729C36.5593 17.1146 36.6568 17.2977 36.8163 17.2977H38.8588C38.9172 17.2976 38.9746 17.2818 39.0255 17.2519C39.0764 17.2219 39.119 17.1787 39.1492 17.1265L44.4869 7.90305C44.5689 7.76131 44.471 7.58008 44.3125 7.58008H42.2702C42.2112 7.58013 42.1532 7.59622 42.102 7.62677C42.0508 7.65732 42.0081 7.70127 41.978 7.75429L39.877 11.4595L38.8105 7.78176C38.7757 7.66207 38.67 7.58008 38.5504 7.58008L36.6543 7.58028Z" fill="#003087"/>
    <path d="M62.9131 4.34766C62.7795 4.34766 62.6657 4.4493 62.6447 4.58723L61.0959 14.8443C61.0902 14.8818 61.0924 14.9202 61.1022 14.9567C61.1121 14.9932 61.1294 15.0271 61.153 15.056C61.1766 15.0849 61.2059 15.108 61.2389 15.1239C61.272 15.1398 61.3079 15.148 61.3442 15.148H63.1806C63.3142 15.148 63.428 15.0464 63.4489 14.9085L64.9974 4.65098C65.003 4.61354 65.0008 4.57528 64.991 4.53882C64.9811 4.50235 64.9638 4.46855 64.9402 4.43974C64.9167 4.41092 64.8874 4.38777 64.8545 4.37188C64.8215 4.35598 64.7857 4.34772 64.7494 4.34766H62.9131Z" fill="#0070E0"/>
    <path d="M5.47561 4.34766C5.35732 4.34776 5.24294 4.39192 5.15302 4.47221C5.0631 4.5525 5.00353 4.66366 4.98503 4.7857L4.16992 10.1858C4.20792 9.93359 4.41597 9.74775 4.66049 9.74775H7.04904C9.45295 9.74775 11.4928 7.91598 11.8655 5.43365C11.8932 5.24832 11.909 5.06125 11.9125 4.87371C11.3016 4.53911 10.584 4.34766 9.79765 4.34766H5.47561Z" fill="#001C64"/>
    <path d="M11.9124 4.87402C11.9088 5.06156 11.8931 5.24863 11.8653 5.43396C11.4926 7.91629 9.45259 9.74806 7.04888 9.74806H4.66032C4.41599 9.74806 4.20776 9.9337 4.16975 10.1861L3.42027 15.1484L2.95081 18.2614C2.94165 18.3215 2.94508 18.383 2.96088 18.4417C2.97669 18.5003 3.00449 18.5546 3.04235 18.6009C3.08021 18.6472 3.12724 18.6844 3.18019 18.7099C3.23314 18.7354 3.29076 18.7486 3.34907 18.7485H5.94164C6.05994 18.7484 6.17431 18.7043 6.26423 18.624C6.35415 18.5437 6.41371 18.4325 6.43221 18.3105L7.11509 13.7863C7.13359 13.6642 7.19321 13.553 7.28321 13.4727C7.37321 13.3924 7.48769 13.3483 7.60605 13.3483H9.13246C11.5364 13.3483 13.5762 11.5165 13.9489 9.03416C14.2136 7.27235 13.3641 5.66912 11.9124 4.87402Z" fill="#0070E0"/>
    <path d="M2.53003 0.748047C2.2857 0.748047 2.07746 0.93369 2.03946 1.18569L0.00500709 14.6611C-0.0335706 14.9169 0.155676 15.1482 0.403649 15.1482H3.42058L4.16968 10.186L4.98479 4.78589C5.00329 4.66384 5.06286 4.55269 5.15278 4.4724C5.24269 4.39211 5.35707 4.34794 5.47537 4.34784H9.79741C10.5839 4.34784 11.3014 4.5395 11.9123 4.8739C11.9541 2.6139 10.1688 0.748047 7.71422 0.748047H2.53003Z" fill="#003087"/>
  </g>
  <defs>
    <clipPath id="clip0_602_50">
      <rect width="65" height="18" fill="white" transform="translate(0 0.748047)"/>
    </clipPath>
  </defs>
</svg>