<svg xmlns="http://www.w3.org/2000/svg" width="48" height="48" viewBox="0 0 48 48" fill="none">
  <path d="M26 32V12C26 10.8954 25.1046 10 24 10H8C6.89543 10 6 10.8954 6 12V32C6 33.1046 6.89543 34 8 34H10M26 32C26 33.1046 25.1046 34 24 34H18M26 32L26 16C26 14.8954 26.8954 14 28 14H33.1716C33.702 14 34.2107 14.2107 34.5858 14.5858L41.4142 21.4142C41.7893 21.7893 42 22.298 42 22.8284V32C42 33.1046 41.1046 34 40 34H38M26 32C26 33.1046 26.8954 34 28 34H30M10 34C10 36.2091 11.7909 38 14 38C16.2091 38 18 36.2091 18 34M10 34C10 31.7909 11.7909 30 14 30C16.2091 30 18 31.7909 18 34M30 34C30 36.2091 31.7909 38 34 38C36.2091 38 38 36.2091 38 34M30 34C30 31.7909 31.7909 30 34 30C36.2091 30 38 31.7909 38 34" stroke="#133C94" stroke-width="2"/>
</svg>