<svg xmlns="http://www.w3.org/2000/svg" width="48" height="48" viewBox="0 0 48 48" fill="none">
  <path d="M24 16V42M24 16C24 16 24 13.0144 24 12C24 9.79086 25.7909 8 28 8C30.2091 8 32 9.79086 32 12C32 14.2091 30.2091 16 28 16C26.8053 16 24 16 24 16ZM24 16C24 16 24 12.1258 24 11C24 8.23858 21.7614 6 19 6C16.2386 6 14 8.23858 14 11C14 13.7614 16.2386 16 19 16C20.6356 16 24 16 24 16ZM10 24H38M10 24C7.79086 24 6 22.2091 6 20C6 17.7909 7.79086 16 10 16H38C40.2091 16 42 17.7909 42 20C42 22.2091 40.2091 24 38 24M10 24L10 38C10 40.2091 11.7909 42 14 42H34C36.2091 42 38 40.2091 38 38V24" stroke="#133C94" stroke-width="2" stroke-linecap="round" stroke-linejoin="round"/>
</svg>