<svg xmlns="http://www.w3.org/2000/svg" width="48" height="48" viewBox="0 0 48 48" fill="none">
  <path d="M20 12H10C7.79086 12 6 13.7909 6 16V34C6 36.2091 7.79086 38 10 38H38C40.2091 38 42 36.2091 42 34V16C42 13.7909 40.2091 12 38 12H28M20 12V10C20 7.79086 21.7909 6 24 6C26.2091 6 28 7.79086 28 10V12M20 12C20 14.2091 21.7909 16 24 16C26.2091 16 28 14.2091 28 12M18 28C20.2091 28 22 26.2091 22 24C22 21.7909 20.2091 20 18 20C15.7909 20 14 21.7909 14 24C14 26.2091 15.7909 28 18 28ZM18 28C20.6124 28 22.8348 29.6696 23.6585 32M18 28C15.3876 28 13.165 29.6696 12.3413 32M30 22H36M30 30H34" stroke="#133C94" stroke-width="2" stroke-linecap="round" stroke-linejoin="round"/>
</svg>